<svg>
  <g transform="scale(4,4)">
   <path               style="stroke-width:.25; stroke-opacity:.5" d="M 0,25 q 10.0,0 17.5,-7.5 l 7,7 -14,-14 7,7 q 7.5,-7.5 7.5,-17.5 h -10 20 -10 q 0,-10.0 -7.5,-17.5 l 7,-7 -14,14 7,-7 q -7.5,-7.5 -17.5,-7.5" />
   <path               style="stroke-width:.25; stroke-opacity:.5" d="M 0,20 q  8.0,0 14.0,-6.0 l 7,7 -14,-14 7,7 q 6.0,-6.0 6.0,-14.0 h -10 20 -10 q 0, -8.0 -6.0,-14.0 l 7,-7 -14,14 7,-7 q -6.0,-6.0 -14.0,-6.0" />
   <path               style="stroke-width:.25; stroke-opacity:.5" d="M 0,15 q  6.0,0 10.5,-4.5 l 7,7 -14,-14 7,7 q 4.5,-4.5 4.5,-10.5 h -10 20 -10 q 0, -6.0 -4.5,-10.5 l 7,-7 -14,14 7,-7 q -4.5,-4.5 -10.5,-4.5" />
   <path               style="stroke-width:.25; stroke-opacity:.5" d="M 0,10 q  4.0,0  7.0,-3.0 l 7,7 -14,-14 7,7 q 3.0,-3.0 3.0, -7.0 h -10 20 -10 q 0, -4.0 -3.0, -7.0 l 7,-7 -14,14 7,-7 q -3.0,-3.0  -7.0,-3.0" />
   <path               style="stroke-width:.25; stroke-opacity:.5" d="M 0,05 q  2.0,0  3.5,-1.5 l 7,7 -14,-14 7,7 q 1.5,-1.5 1.5, -3.5 h -10 20 -10 q 0, -2.0 -1.5, -3.5 l 7,-7 -14,14 7,-7 q -1.5,-1.5  -3.5,-1.5" />
   <path stroke="#0f8" style="stroke-width:.25; stroke-opacity:.5" d="M 0,10 v 10 l 14.0,-6.0 l -7.0,-7.0" />
   <path stroke="#f80" style="stroke-width:.25; stroke-opacity:.5" d="M 0,10 v  5 l 10.5,-4.5 l -3.5,-3.5" />
  </g>
</svg>
